<svg xmlns="http://www.w3.org/2000/svg" width="40" height="40" viewBox="0 0 40 40" fill="none"><rect width="40" height="40" rx="20" fill="#00C700"></rect><path d="M25.9023 25.1523V28H14.1133V25.5859L19.6211 19.75C20.1367 19.1562 20.5469 18.6328 20.8516 18.1797C21.1641 17.7266 21.3906 17.3164 21.5312 16.9492C21.6719 16.5742 21.7422 16.2305 21.7422 15.918C21.7422 15.4102 21.6602 14.9805 21.4961 14.6289C21.3398 14.2773 21.1094 14.0078 20.8047 13.8203C20.5 13.6328 20.1289 13.5391 19.6914 13.5391C19.2227 13.5391 18.8203 13.6602 18.4844 13.9023C18.1484 14.1445 17.8906 14.4805 17.7109 14.9102C17.5312 15.332 17.4414 15.8125 17.4414 16.3516H13.7617C13.7617 15.3125 14.0117 14.3672 14.5117 13.5156C15.0117 12.6562 15.7109 11.9727 16.6094 11.4648C17.5078 10.9492 18.5586 10.6914 19.7617 10.6914C20.9961 10.6914 22.0312 10.8867 22.8672 11.2773C23.7031 11.668 24.3359 12.2266 24.7656 12.9531C25.1953 13.6797 25.4102 14.5547 25.4102 15.5781C25.4102 16.1562 25.3164 16.7148 25.1289 17.2539C24.9492 17.793 24.6875 18.3281 24.3438 18.8594C24 19.3906 23.5859 19.9336 23.1016 20.4883C22.6172 21.0352 22.0703 21.6133 21.4609 22.2227L18.8828 25.1523H25.9023Z" fill="white"></path></svg>