<svg xmlns="http://www.w3.org/2000/svg" width="40" height="40" viewBox="0 0 40 40" fill="none"><rect width="40" height="40" rx="20" fill="#00C700"></rect><path d="M17.6406 17.9102H19.5039C20.0352 17.9102 20.4727 17.8164 20.8164 17.6289C21.168 17.4414 21.4258 17.1758 21.5898 16.832C21.7617 16.4883 21.8477 16.0859 21.8477 15.625C21.8477 15.2266 21.7695 14.8711 21.6133 14.5586C21.457 14.2461 21.2188 14 20.8984 13.8203C20.5859 13.6328 20.1797 13.5391 19.6797 13.5391C19.3203 13.5391 18.9766 13.6133 18.6484 13.7617C18.3281 13.9023 18.0664 14.1094 17.8633 14.3828C17.6602 14.6484 17.5586 14.9688 17.5586 15.3438H13.8906C13.8906 14.3906 14.1484 13.5664 14.6641 12.8711C15.1875 12.1758 15.8789 11.6406 16.7383 11.2656C17.6055 10.8828 18.5508 10.6914 19.5742 10.6914C20.7539 10.6914 21.7891 10.8789 22.6797 11.2539C23.5781 11.6211 24.2734 12.168 24.7656 12.8945C25.2656 13.6133 25.5156 14.5039 25.5156 15.5664C25.5156 16.1211 25.3828 16.6562 25.1172 17.1719C24.8594 17.6797 24.4883 18.1328 24.0039 18.5312C23.5273 18.9219 22.957 19.2344 22.293 19.4688C21.6367 19.6953 20.9062 19.8086 20.1016 19.8086H17.6406V17.9102ZM17.6406 20.6641V18.8008H20.1016C20.9922 18.8008 21.7891 18.9023 22.4922 19.1055C23.1953 19.3086 23.793 19.6016 24.2852 19.9844C24.7773 20.3672 25.1523 20.832 25.4102 21.3789C25.668 21.9258 25.7969 22.5352 25.7969 23.207C25.7969 24.0039 25.6406 24.7148 25.3281 25.3398C25.0156 25.9648 24.5781 26.4922 24.0156 26.9219C23.4531 27.3516 22.793 27.6797 22.0352 27.9062C21.2773 28.125 20.457 28.2344 19.5742 28.2344C18.8633 28.2344 18.1562 28.1367 17.4531 27.9414C16.75 27.7461 16.1133 27.4492 15.543 27.0508C14.9727 26.6445 14.5156 26.1328 14.1719 25.5156C13.8281 24.8906 13.6562 24.1484 13.6562 23.2891H17.3242C17.3242 23.6875 17.4258 24.0469 17.6289 24.3672C17.8398 24.6797 18.125 24.9297 18.4844 25.1172C18.8516 25.2969 19.25 25.3867 19.6797 25.3867C20.1953 25.3867 20.6328 25.293 20.9922 25.1055C21.3594 24.9102 21.6367 24.6445 21.8242 24.3086C22.0195 23.9727 22.1172 23.5859 22.1172 23.1484C22.1172 22.5547 22.0117 22.0781 21.8008 21.7188C21.5977 21.3516 21.3008 21.0859 20.9102 20.9219C20.5195 20.75 20.0508 20.6641 19.5039 20.6641H17.6406Z" fill="white"></path></svg>